<?xml version="1.0" encoding="utf-8"?>
<!-- Generator: Adobe Illustrator 26.2.1, SVG Export Plug-In . SVG Version: 6.00 Build 0)  -->
<svg version="1.1" id="Ebene_1" xmlns="http://www.w3.org/2000/svg" xmlns:xlink="http://www.w3.org/1999/xlink" x="0px" y="0px"
	 viewBox="0 0 680.7372 63" style="enable-background:new 0 0 680.7372 63;" xml:space="preserve">
<style type="text/css">
	.st0{fill:#FFE633;}
</style>
<g>
	<g>
		<path class="st0" d="M211.1274,19.7859c-1.9595-1.0515-4.236-1.5797-6.8318-1.5797h-7.6644v26.5824h7.6644
			c2.6361,0,4.9352-0.5333,6.8922-1.6048s3.4712-2.6059,4.5452-4.6082c1.069-1.9972,1.6074-4.3768,1.6074-7.1386
			c0-2.7216-0.5483-5.076-1.6401-7.0782C214.6086,22.3617,213.0844,20.8373,211.1274,19.7859z"/>
		<path class="st0" d="M292.6632,18.8251c-1.0515-1.0262-2.5255-1.5444-4.4196-1.5444h-6.9852v10.8161h6.9223
			c1.8965,0,3.3781-0.483,4.4522-1.4489c1.069-0.9709,1.6073-2.2789,1.6073-3.929
			C294.2403,21.1543,293.7146,19.8564,292.6632,18.8251z"/>
		<polygon class="st0" points="109.3544,37.5595 120.6596,37.5595 115.0733,22.0707 		"/>
		<path class="st0" d="M0,0v63h360V0H0z M60.8,50.9144V28.2271c0-1.4817-1.2011-2.683-2.6829-2.683s-2.6829,1.2013-2.6829,2.683
			v24.9597C53.5208,53.7159,51.5055,54,49.4236,54c-12.4264,0-22.5-10.0736-22.5-22.5S36.9973,9,49.4236,9s22.5,10.0736,22.5,22.5
			C71.9236,39.7755,67.4551,47.0063,60.8,50.9144z M126.3443,53.3209l-2.8323-7.853h-17.0776l-2.8995,7.853H93.4583l17.2454-43.6417
			h8.8416l17.1222,43.6417H126.3443z M178.5785,53.3209h-7.2317L151.01,27.1995v26.1214h-9.7672V9.6791h6.8619l20.6462,26.4525
			V9.6791h9.8275V53.3209z M225.6838,40.246c-1.1545,2.6562-2.7618,4.9653-4.822,6.9223c-2.0601,1.962-4.4799,3.4763-7.2619,4.5478
			c-2.782,1.0715-5.8029,1.6048-9.0578,1.6048h-7.9109h-3.0914h-6.6758V9.6791h6.3664h3.4008h7.7876
			c3.2977,0,6.3362,0.5232,9.1182,1.5746c2.782,1.0515,5.2144,2.5557,7.2946,4.5126c2.0803,1.9569,3.6976,4.256,4.8522,6.892
			c1.1545,2.6412,1.7306,5.5842,1.7306,8.8391C227.4144,34.6719,226.8384,37.5897,225.6838,40.246z M264.9387,53.3209h-21.6976
			h-2.289h-7.4781V9.6791h7.4781h2.289h21.3253v8.4064h-21.3253v8.8391h19.4715v8.2202h-19.4715v9.7697h21.6976V53.3209z
			 M295.2288,53.3209l-12.9744-17.9296h-0.9959v17.9296h-9.7672V9.6791h7.4782h2.289h8.097c2.9254,0,5.481,0.5433,7.6643,1.635
			c2.1859,1.0917,3.8862,2.611,5.1012,4.5428c1.2149,1.9419,1.8237,4.1453,1.8237,6.6154c0,2.6412-0.6188,4.915-1.8539,6.8317
			c-1.2375,1.9167-2.9681,3.4108-5.1942,4.4824c-1.2191,0.5876-2.5613,1.0073-4.017,1.272l13.9075,18.2625H295.2288z
			 M337.9305,50.4483C334.9648,52.8178,330.8422,54,325.5674,54c-3.6272,0-6.7286-0.5786-9.3019-1.7305
			c-2.5782-1.1521-4.915-2.9229-7.0178-5.3175l6.306-6.3036c1.401,1.6049,2.9556,2.8525,4.666,3.7379
			c1.7104,0.8904,3.7001,1.3332,5.9665,1.3332c2.0199,0,3.5944-0.3823,4.7289-1.147c1.1344-0.7596,1.7004-1.801,1.7004-3.119
			c0-1.1571-0.3622-2.1028-1.0816-2.8474c-0.7219-0.7396-1.7004-1.3784-2.9354-1.9117c-1.2375-0.5383-2.5782-1.0414-4.0195-1.5193
			c-1.4438-0.4729-2.8952-1.0363-4.3592-1.6954c-1.4614-0.6591-2.8021-1.4639-4.017-2.4148
			c-1.2149-0.9457-2.1934-2.1632-2.9354-3.6473c-0.742-1.484-1.1143-3.3152-1.1143-5.4985c0-2.7217,0.649-5.0509,1.9469-6.9877
			c1.3005-1.9368,3.1241-3.4108,5.4709-4.417C321.9202,9.5031,324.5789,9,327.547,9c3.0914,0,5.8911,0.5333,8.4064,1.6048
			c2.5129,1.0715,4.5956,2.5154,6.2432,4.3265l-6.3664,6.3689c-1.3206-1.3633-2.6487-2.3694-3.9869-3.0284
			c-1.3406-0.6591-2.8348-0.9911-4.4824-0.9911c-1.6903,0-3.0285,0.322-4.0171,0.9609c-0.991,0.6389-1.484,1.5545-1.484,2.7468
			c0,1.0715,0.3697,1.9469,1.1118,2.631c0.742,0.6792,1.7205,1.2678,2.9354,1.7608c1.2174,0.493,2.5556,0.986,4.0195,1.4841
			c1.4614,0.493,2.9254,1.0615,4.3893,1.7004c1.4614,0.6389,2.7921,1.474,3.9869,2.5002c1.1948,1.0313,2.1733,2.3091,2.9354,3.8335
			c0.7621,1.5243,1.1445,3.441,1.1445,5.7501C342.3827,44.8088,340.8986,48.0789,337.9305,50.4483z"/>
	</g>
	<g>
		<path class="st0" d="M396.5629,53.3209c-3.6272,0-6.8091-0.7697-9.5509-2.3192c-2.7392-1.5444-4.8823-3.6674-6.4293-6.3639
			c-1.5444-2.7015-2.3167-5.7602-2.3167-9.1811V9h9.7672v26.9497c0,1.7759,0.3798,3.3002,1.142,4.578
			c0.7621,1.2778,1.7834,2.2437,3.0612,2.9027c1.2778,0.659,2.7191,0.9911,4.3264,0.9911c1.5671,0,2.9782-0.332,4.2359-0.9911
			c1.2552-0.659,2.2336-1.6249,2.9355-2.9027c0.7018-1.2778,1.0514-2.782,1.0514-4.5126V9h9.8301v26.5171
			c0,3.4209-0.7647,6.4695-2.289,9.1509c-1.5243,2.6764-3.6473,4.7893-6.3664,6.3337
			C403.2412,52.5512,400.1071,53.3209,396.5629,53.3209z"/>
		<polygon class="st0" points="449.7882,9 449.7882,35.4525 429.142,9 422.2801,9 422.2801,52.6418 432.0472,52.6418 
			432.0472,26.5203 452.3841,52.6418 459.6158,52.6418 459.6158,9 		"/>
		<path class="st0" d="M506.7212,21.9793c-1.1546-2.6361-2.772-4.9352-4.8522-6.8921c-2.0802-1.9569-4.5125-3.4611-7.2946-4.5125
			C491.7924,9.5232,488.7539,9,485.4562,9h-7.7876h-3.4008h-6.3664v43.6418h6.6758h3.0914h7.9109
			c3.2549,0,6.2759-0.5333,9.0579-1.6048c2.782-1.0715,5.2018-2.5858,7.2619-4.5478c2.0601-1.957,3.6674-4.2661,4.822-6.9223
			s1.7306-5.5741,1.7306-8.7485C508.4518,27.5635,507.8757,24.6205,506.7212,21.9793z M496.7703,37.8966
			c-1.0741,2.0022-2.5883,3.5366-4.5452,4.6081c-1.957,1.0716-4.256,1.6048-6.8922,1.6048h-7.6644V17.5271h7.6644
			c2.5959,0,4.8723,0.5282,6.8318,1.5796c1.957,1.0514,3.4813,2.5758,4.5729,4.573c1.0917,2.0022,1.64,4.3566,1.64,7.0782
			C498.3777,33.5198,497.8394,35.8994,496.7703,37.8966z"/>
	</g>
	<g>
		<path class="st0" d="M555.0944,34.8982c-0.7622-1.5243-1.7407-2.8021-2.9355-3.8334c-1.1948-1.0263-2.5254-1.8614-3.9868-2.5003
			c-1.464-0.6389-2.9279-1.2074-4.3894-1.7004c-1.4639-0.498-2.8021-0.991-4.0196-1.4841c-1.2149-0.493-2.1934-1.0816-2.9354-1.7607
			c-0.742-0.6842-1.1118-1.5595-1.1118-2.6311c0-1.1923,0.493-2.1079,1.4841-2.7468c0.9885-0.6389,2.3267-0.9609,4.017-0.9609
			c1.6476,0,3.1417,0.332,4.4824,0.991c1.3381,0.659,2.6663,1.6652,3.9869,3.0285l6.3665-6.3689
			c-1.6476-1.811-3.7303-3.2549-6.2432-4.3265C547.2941,9.5332,544.4945,9,541.4031,9c-2.9681,0-5.6269,0.5031-7.9763,1.5143
			c-2.3468,1.0061-4.1705,2.4801-5.4709,4.417c-1.2979,1.9368-1.9469,4.2661-1.9469,6.9877c0,2.1834,0.3723,4.0146,1.1143,5.4986
			s1.7205,2.7015,2.9354,3.6473c1.215,0.9508,2.5556,1.7557,4.0171,2.4148c1.464,0.659,2.9153,1.2225,4.3591,1.6953
			c1.4413,0.4779,2.782,0.981,4.0195,1.5193c1.2351,0.5333,2.2136,1.1722,2.9355,1.9117c0.7194,0.7446,1.0816,1.6904,1.0816,2.8474
			c0,1.3181-0.566,2.3594-1.7004,3.1191c-1.1345,0.7647-2.7091,1.147-4.7289,1.147c-2.2664,0-4.256-0.4427-5.9665-1.3332
			c-1.7104-0.8854-3.265-2.133-4.666-3.7378l-6.3061,6.3035c2.1028,2.3947,4.4397,4.1655,7.0179,5.3175
			c2.5732,1.152,5.6747,1.7305,9.3019,1.7305c5.2747,0,9.3974-1.1822,12.363-3.5517c2.9681-2.3695,4.4522-5.6395,4.4522-9.7999
			C556.2388,38.3393,555.8565,36.4226,555.0944,34.8982z"/>
		<polygon class="st0" points="572.063,44.9145 572.063,35.1448 591.5345,35.1448 591.5345,26.9246 572.063,26.9246 
			572.063,18.0855 593.3884,18.0855 593.3884,9.6791 572.063,9.6791 569.774,9.6791 562.2958,9.6791 562.2958,53.3209 
			569.774,53.3209 572.063,53.3209 593.7606,53.3209 593.7606,44.9145 		"/>
		<polygon class="st0" points="627.3258,9.6791 627.3258,26.678 610.0804,26.678 610.0804,9.6791 600.3132,9.6791 600.3132,53.3209 
			610.0804,53.3209 610.0804,35.1448 627.3258,35.1448 627.3258,53.3209 637.1559,53.3209 637.1559,9.6791 		"/>
		<path class="st0" d="M669.1791,53.3209h11.5582l-13.9149-18.2721c1.4558-0.2647,2.8052-0.6747,4.0244-1.2623
			c2.2261-1.0715,3.9567-2.5657,5.1943-4.4824c1.235-1.9167,1.8538-4.1906,1.8538-6.8317c0-2.4701-0.6088-4.6736-1.8237-6.6154
			c-1.2149-1.9318-2.9153-3.4511-5.1012-4.5428c-2.1833-1.0917-4.739-1.635-7.6643-1.635h-8.097h-2.2889h-7.4782v43.6418h9.7672
			V35.3913h0.9959L669.1791,53.3209z M655.2087,17.2806h6.9852c1.894,0,3.3681,0.5181,4.4195,1.5444
			c1.0515,1.0313,1.5771,2.3292,1.5771,3.8938c0,1.6501-0.5383,2.9581-1.6073,3.929c-1.0741,0.9659-2.5556,1.4488-4.4523,1.4488
			h-6.9223V17.2806z"/>
	</g>
</g>
</svg>
